{"glyphs":{":":{"x_min":0,"x_max":300,"ha":300,"o":"m 152 500 q 199 500 232 466 q 266 433 266 386 q 266 334 231 301 q 197 269 150 269 q 104 269 70 301 q 35 334 35 386 q 35 431 64 461 q 100 500 152 500 z m 152 217 q 199 217 232 184 q 266 150 266 104 q 266 52 231 19 q 197 -13 150 -13 q 104 -13 70 19 q 35 52 35 104 q 35 148 64 179 q 100 217 152 217 z"},"$":{"x_min":0,"x_max":600,"ha":600,"o":"m 237 593 l 237 616 q 237 635 244 642 q 250 648 270 648 l 311 648 q 330 648 336 642 q 342 635 342 616 l 342 592 q 342 577 347 573 q 351 570 379 565 q 386 564 406 558 q 415 555 420 555 q 425 555 433 558 q 454 565 462 565 q 488 565 521 522 q 555 476 555 433 q 555 407 541 392 q 526 376 504 376 q 487 376 477 383 q 466 390 421 431 q 377 472 326 472 q 304 472 290 460 q 276 448 276 429 q 276 402 306 387 q 317 380 396 357 q 474 333 515 297 q 566 250 566 175 q 566 98 511 46 q 480 17 439 -2 q 398 -22 362 -25 q 349 -26 346 -30 q 342 -34 342 -48 l 342 -70 q 342 -90 336 -96 q 330 -103 311 -103 l 270 -103 q 250 -103 244 -96 q 237 -90 237 -70 l 237 -48 q 237 -35 235 -31 q 232 -26 223 -25 q 181 -20 139 -7 q 97 6 83 18 q 64 33 49 79 q 33 124 33 163 q 33 184 43 196 q 52 208 68 208 q 86 208 106 185 q 111 179 139 136 q 158 107 191 91 q 225 74 264 74 q 296 74 316 86 q 336 98 336 116 q 336 139 309 154 q 299 159 225 186 q 48 249 48 382 q 48 457 109 513 q 156 557 216 569 q 231 572 234 575 q 237 579 237 593 z"},"?":{"x_min":0,"x_max":482,"ha":482,"o":"m 227 198 q 270 198 300 167 q 330 135 330 93 q 330 50 299 18 q 268 -13 224 -13 q 182 -13 151 16 q 119 47 119 93 q 119 135 147 165 q 180 198 227 198 z m 238 666 q 292 666 349 643 q 407 618 440 574 q 472 532 472 483 q 472 427 426 388 q 414 378 354 349 q 333 338 322 328 q 312 318 304 301 q 287 265 274 256 q 262 246 231 246 q 202 246 185 263 q 167 280 167 310 q 167 337 181 367 q 184 375 218 426 q 250 474 250 516 q 250 537 240 550 q 231 563 216 563 q 201 563 195 554 q 188 544 186 518 q 181 468 153 442 q 125 416 80 416 q 49 416 29 434 q 7 454 7 485 q 7 532 39 577 q 72 622 123 643 q 176 666 238 666 z"},"<":{"x_min":0,"x_max":500,"ha":500,"o":"m 466 679 l 466 462 l 264 338 l 465 215 l 466 -1 l 33 249 l 33 430 z"},"'":{"x_min":0,"x_max":228,"ha":228,"o":"m 114 676 q 150 676 172 646 q 195 615 195 566 q 195 528 183 486 q 170 443 150 409 q 127 371 113 371 q 99 371 74 419 q 33 497 33 572 q 33 619 55 647 q 78 676 114 676 z"},"=":{"x_min":0,"x_max":600,"ha":600,"o":"m 215 430 l 462 430 q 500 430 509 431 q 519 432 521 432 q 540 432 540 413 q 540 402 532 375 q 523 348 515 332 q 503 309 487 309 l 409 315 l 190 315 q 130 315 93 312 q 87 312 83 312 q 73 312 67 318 q 60 323 60 331 q 60 339 71 369 q 81 399 88 413 q 101 435 121 435 q 127 435 135 434 q 184 430 215 430 z m 215 256 l 462 256 q 500 256 509 257 q 519 259 521 259 q 540 259 540 239 q 540 229 532 201 q 523 174 515 158 q 503 135 487 135 l 409 142 l 190 142 q 130 142 93 139 q 87 139 83 139 q 73 139 67 144 q 60 150 60 158 q 60 166 71 196 q 81 226 88 239 q 101 262 121 262 q 127 262 135 261 q 184 256 215 256 z"},"a":{"x_min":0,"x_max":567,"ha":567,"o":"m 297 487 q 382 487 441 444 q 473 421 485 391 q 498 362 498 310 l 497 237 q 497 162 507 139 q 513 128 518 125 q 522 123 538 120 q 554 118 554 100 q 554 76 535 51 q 516 25 486 8 q 450 -13 410 -13 q 358 -13 329 22 q 318 35 310 35 q 300 35 284 22 q 235 -13 173 -13 q 109 -13 69 14 q 43 32 28 61 q 13 90 13 122 q 13 173 54 212 q 118 273 246 274 q 274 274 281 280 q 289 285 289 306 q 289 357 278 381 q 267 404 243 404 q 228 404 217 395 q 205 386 188 363 q 145 301 97 301 q 73 301 58 315 q 43 329 43 352 q 43 375 62 399 q 81 422 113 440 q 201 487 297 487 z m 265 204 q 243 204 227 187 q 211 169 211 145 q 211 121 223 107 q 234 92 252 92 q 292 92 292 158 q 292 185 286 194 q 280 204 265 204 z"},"L":{"x_min":0,"x_max":633,"ha":633,"o":"m 333 453 l 333 229 q 333 153 347 131 q 363 105 415 105 q 470 105 502 130 q 535 154 547 206 q 555 238 581 238 q 606 238 623 215 q 639 191 639 154 q 639 94 594 25 q 580 3 569 -5 q 559 -13 543 -13 l 435 0 l 94 0 q 60 0 46 8 q 26 19 26 42 q 26 55 33 62 q 40 68 65 81 q 93 94 101 118 q 107 138 107 234 q 107 279 104 364 q 102 445 102 486 q 102 525 95 539 q 89 554 70 560 q 38 571 29 578 q 13 590 13 606 q 13 642 72 660 q 123 676 207 676 q 302 676 349 667 q 409 653 409 614 q 409 598 401 590 q 393 582 362 569 q 343 561 338 541 q 333 521 333 453 z"},"3":{"x_min":0,"x_max":600,"ha":600,"o":"m 257 560 q 352 560 424 525 q 453 511 470 486 q 487 461 487 432 q 487 379 432 335 q 416 323 416 315 q 416 301 444 296 q 576 271 576 149 q 576 73 522 9 q 471 -52 372 -81 q 301 -101 215 -101 q 115 -101 43 -73 q -2 -56 -2 -22 q -2 -1 13 13 q 29 28 51 28 q 63 28 117 16 q 134 11 167 11 q 226 11 260 38 q 297 67 297 104 q 297 139 269 161 q 240 183 196 183 q 167 183 146 177 q 133 173 127 173 q 114 173 101 199 q 87 225 87 249 q 87 261 94 265 q 100 269 134 281 q 165 291 193 320 q 215 342 215 367 q 215 395 193 415 q 171 436 140 436 q 122 436 109 431 q 96 427 61 408 q 51 403 45 403 q 33 403 22 420 q 11 437 11 456 q 11 489 69 519 q 106 537 157 549 q 209 560 257 560 z"},";":{"x_min":0,"x_max":300,"ha":300,"o":"m 142 224 q 166 224 189 212 q 213 201 229 181 q 266 135 266 64 q 266 25 251 -24 q 237 -72 213 -112 q 175 -176 133 -176 q 114 -176 99 -165 q 84 -154 84 -139 q 84 -131 103 -102 q 114 -84 123 -62 q 131 -40 131 -29 q 131 -11 115 -5 q 82 7 68 19 q 27 54 27 109 q 27 153 56 185 q 92 224 142 224 z m 150 500 q 197 500 230 466 q 264 433 264 386 q 264 334 229 301 q 195 269 148 269 q 102 269 68 301 q 33 334 33 386 q 33 431 62 461 q 98 500 150 500 z"},"J":{"x_min":0,"x_max":627,"ha":627,"o":"m 422 677 q 477 677 534 667 q 580 659 600 646 q 620 632 620 608 q 620 593 613 584 q 605 576 581 563 q 553 549 549 529 q 544 509 541 375 q 540 246 538 220 q 537 194 532 170 q 518 99 475 58 q 440 25 385 6 q 330 -13 269 -13 q 214 -13 160 1 q 105 15 65 40 q 32 61 13 95 q -7 130 -7 170 q -7 219 24 251 q 55 283 101 283 q 146 283 178 256 q 210 229 210 188 q 210 178 204 154 q 203 149 203 144 q 203 128 214 118 q 226 108 244 108 q 277 108 297 138 q 317 167 317 215 l 316 259 l 315 379 q 311 488 309 507 q 307 526 298 539 q 291 548 285 551 q 279 554 254 561 q 243 563 234 574 q 226 585 226 598 q 226 625 247 640 q 268 656 314 666 q 367 677 422 677 z"},"V":{"x_min":0,"x_max":803,"ha":803,"o":"m 692 515 l 468 62 q 447 20 429 4 q 410 -12 382 -12 q 358 -12 340 -2 q 326 6 318 16 q 310 27 297 54 l 98 494 q 81 531 68 545 q 54 558 29 562 q 0 568 0 599 q 0 636 51 656 q 103 677 198 677 q 298 677 345 662 q 392 646 392 615 q 392 594 366 577 q 347 563 347 552 q 347 541 355 521 l 417 383 q 430 353 446 353 q 462 353 475 369 q 488 385 509 433 q 548 518 554 533 q 561 548 561 557 q 561 573 538 585 q 512 598 512 619 q 512 677 668 677 q 746 677 778 664 q 810 652 810 622 q 810 585 768 580 q 738 577 729 570 q 713 559 692 515 z"},"\"":{"x_min":0,"x_max":432,"ha":432,"o":"m 114 676 q 150 676 172 646 q 195 615 195 566 q 195 528 183 486 q 170 443 150 409 q 127 371 113 371 q 99 371 74 419 q 33 497 33 572 q 33 619 55 647 q 78 676 114 676 z m 318 676 q 354 676 376 646 q 399 615 399 566 q 399 528 387 486 q 375 443 354 409 q 331 371 317 371 q 303 371 278 419 q 237 498 237 572 q 237 619 260 647 q 282 676 318 676 z"},"7":{"x_min":0,"x_max":600,"ha":600,"o":"m 571 495 l 373 -105 q 369 -118 358 -122 q 347 -126 322 -126 q 266 -126 219 -110 q 173 -93 173 -73 q 173 -68 177 -61 l 359 287 q 379 326 379 341 q 379 359 356 366 q 333 373 271 373 q 197 373 166 364 q 152 359 142 345 q 128 327 117 320 q 106 313 88 313 q 55 313 37 342 q 19 370 19 422 q 19 487 42 531 q 53 552 71 566 q 89 580 105 580 q 116 580 154 563 q 178 553 215 553 l 529 553 q 575 553 575 518 q 575 507 571 495 z"},"S":{"x_min":0,"x_max":645,"ha":645,"o":"m 314 680 q 365 680 446 655 q 456 652 462 652 q 467 652 491 661 q 499 664 508 664 q 541 664 577 612 q 613 561 613 514 q 613 486 597 468 q 581 449 557 449 q 538 449 525 457 q 513 464 472 503 q 413 558 356 558 q 329 558 313 544 q 296 531 296 510 q 296 467 371 446 q 472 416 500 402 q 625 342 625 224 q 625 120 540 54 q 453 -13 313 -13 q 250 -13 181 2 q 112 17 81 37 q 58 52 39 105 q 20 157 20 207 q 20 231 30 243 q 42 259 61 259 q 79 259 96 240 q 106 229 145 171 q 163 144 202 125 q 241 107 283 107 q 319 107 342 121 q 364 134 364 155 q 364 175 347 189 q 329 203 290 215 q 220 237 183 256 q 146 274 115 302 q 38 370 38 457 q 38 500 58 541 q 78 582 114 611 q 196 680 314 680 z"},"}":{"x_min":0,"x_max":499,"ha":499,"o":"m 193 370 l 193 491 q 193 555 188 565 q 182 578 165 583 q 147 588 112 588 q 110 588 91 588 q 85 588 80 588 q 26 588 26 622 q 26 662 83 670 q 125 676 221 676 q 306 676 341 644 q 376 611 376 533 l 376 379 q 376 335 387 317 q 398 299 431 290 q 464 280 464 243 q 464 213 441 201 q 438 199 417 193 q 390 182 382 160 q 376 144 376 107 l 376 -46 q 376 -125 341 -157 q 306 -190 221 -190 q 113 -190 74 -182 q 51 -178 39 -165 q 26 -153 26 -135 q 26 -101 80 -101 q 86 -101 113 -102 q 160 -101 176 -92 q 188 -85 191 -73 q 193 -60 193 -5 l 193 117 q 193 162 204 188 q 214 214 241 234 q 245 237 245 241 q 245 248 228 262 q 211 276 202 303 q 193 331 193 370 z"},"Z":{"x_min":0,"x_max":686,"ha":686,"o":"m 613 589 l 397 217 q 360 154 360 141 q 360 119 427 119 q 453 119 479 124 q 505 130 518 138 q 542 154 567 208 q 577 229 586 237 q 595 245 611 245 q 645 245 662 225 q 679 206 679 168 q 679 90 638 32 q 609 -9 583 -9 q 576 -9 564 -7 q 528 0 497 0 l 72 0 q 43 0 38 1 q 32 2 26 8 q 17 18 17 35 q 17 51 30 74 l 282 500 q 293 520 293 527 q 293 555 237 555 q 189 555 168 539 q 147 523 120 468 q 100 426 73 426 q 47 426 27 450 q 7 474 7 505 q 7 555 48 625 q 78 673 96 673 q 100 673 108 670 q 138 660 238 660 q 283 660 443 670 q 580 678 583 678 q 604 678 617 666 q 630 653 630 633 q 630 620 613 589 z"},"x":{"x_min":0,"x_max":602,"ha":602,"o":"m 171 273 l 130 325 q 103 359 88 371 q 73 382 50 387 q 11 396 11 424 q 11 454 61 469 q 110 483 214 483 q 289 483 326 475 q 366 465 366 436 q 366 424 350 399 q 347 394 347 389 q 347 378 363 359 q 378 339 386 339 q 395 339 412 361 q 429 383 429 394 q 429 401 418 417 q 409 431 409 438 q 409 449 417 459 q 425 470 437 475 q 459 483 511 483 q 557 483 574 475 q 599 462 599 438 q 599 426 592 419 q 585 413 557 400 q 542 393 534 384 q 526 375 480 312 l 446 261 q 440 253 440 250 q 440 248 446 239 l 475 195 q 522 124 544 103 q 555 92 579 82 q 602 72 602 48 q 602 15 561 3 q 520 -10 411 -10 q 327 -10 294 -2 q 250 9 250 43 q 250 64 275 76 q 290 82 290 97 q 290 113 270 141 q 250 169 238 169 q 227 168 204 134 q 181 99 181 82 q 181 73 192 59 q 203 47 203 33 q 203 -10 103 -10 q 48 -10 24 1 q 0 12 0 36 q 0 52 8 59 q 15 66 36 70 q 57 74 68 87 q 80 101 138 193 l 173 251 q 178 259 178 262 q 178 265 171 273 z"},")":{"x_min":0,"x_max":499,"ha":499,"o":"m 42 -91 q 49 -91 62 -93 q 91 -97 102 -97 q 163 -97 191 -7 q 225 99 225 235 q 225 332 210 412 q 194 493 167 540 q 140 585 92 585 q 80 585 65 584 q 48 583 45 583 q 10 583 10 628 q 10 652 29 662 q 58 677 107 677 q 238 677 327 565 q 432 434 432 232 q 432 23 327 -100 q 250 -190 122 -190 q 56 -190 25 -171 q 10 -163 10 -140 q 10 -93 42 -91 z"},"&":{"x_min":0,"x_max":869,"ha":869,"o":"m 322 693 q 390 693 439 666 q 488 639 488 601 q 488 580 471 562 q 454 545 433 545 q 424 545 418 548 q 412 551 385 569 q 362 585 337 585 q 312 585 296 566 q 280 548 280 520 q 280 482 309 466 q 317 462 354 458 q 383 454 383 417 q 383 377 351 358 q 336 350 296 344 q 273 341 273 300 q 273 251 304 200 q 333 153 377 127 q 418 104 462 104 q 521 104 566 139 q 606 170 606 219 q 606 242 588 259 q 570 276 544 276 q 504 276 475 226 q 462 205 448 205 q 431 205 418 225 q 405 246 405 274 q 405 333 448 380 q 490 427 570 457 q 634 480 649 494 q 666 510 666 527 q 666 537 659 544 q 652 552 643 552 q 639 552 625 546 q 623 545 619 545 q 610 545 604 552 q 598 558 598 566 q 598 587 618 606 q 636 623 666 633 q 695 644 725 644 q 779 644 819 616 q 842 600 855 574 q 869 548 869 519 q 869 477 840 437 q 812 397 762 371 q 727 352 727 337 q 727 327 750 312 q 772 299 785 275 q 798 251 798 224 q 798 178 763 130 q 711 59 604 20 q 516 -13 405 -13 q 259 -13 156 41 q 81 80 40 154 q 13 202 13 257 q 13 316 52 358 q 75 383 100 396 q 118 405 118 414 q 118 418 113 427 q 83 478 83 514 q 83 550 104 585 q 125 621 160 645 q 193 667 237 680 q 281 693 322 693 z"},"_":{"x_min":0,"x_max":500,"ha":500,"o":"m 0 -53 l 500 -53 l 500 -179 l 0 -179 z"},"v":{"x_min":0,"x_max":627,"ha":627,"o":"m 529 333 l 403 87 q 374 30 353 8 q 333 -14 309 -14 q 286 -14 272 2 q 242 36 220 78 l 81 341 q 70 362 59 372 q 49 381 30 386 q -7 397 -7 426 q -7 456 39 470 q 85 483 184 483 q 267 483 306 471 q 346 459 346 435 q 346 417 327 401 q 315 390 312 385 q 309 379 309 371 q 309 354 330 316 q 352 278 370 278 q 382 278 390 288 q 398 297 418 335 q 434 364 434 378 q 434 390 418 406 q 401 424 401 439 q 401 462 432 473 q 463 483 534 483 q 634 483 634 440 q 634 415 598 404 q 570 395 560 385 q 550 375 529 333 z"},"O":{"x_min":0,"x_max":778,"ha":778,"o":"m 395 680 q 520 680 614 608 q 677 559 717 480 q 755 402 755 324 q 755 209 679 118 q 615 41 511 7 q 447 -13 382 -13 q 298 -13 221 22 q 127 64 75 150 q 23 233 23 333 q 23 450 89 539 q 148 618 247 655 q 313 680 395 680 z m 348 540 q 307 540 283 503 q 265 476 265 438 q 265 383 287 311 q 310 238 344 182 q 359 158 381 144 q 403 130 426 130 q 463 130 486 158 q 509 186 509 231 q 509 290 490 358 q 471 427 440 475 q 422 505 397 522 q 373 539 348 540 z"},"(":{"x_min":0,"x_max":499,"ha":499,"o":"m 377 677 q 443 677 474 658 q 488 649 488 627 q 488 604 480 591 q 471 578 457 578 q 448 578 437 579 q 405 584 397 584 q 335 584 307 494 q 273 388 273 252 q 273 155 289 74 q 304 -6 331 -53 q 358 -99 406 -99 q 419 -99 434 -97 q 450 -96 454 -96 q 489 -96 489 -142 q 489 -165 469 -175 q 440 -190 391 -190 q 260 -190 171 -79 q 67 53 67 254 q 67 400 119 506 q 202 677 377 677 z"},"C":{"x_min":0,"x_max":720,"ha":720,"o":"m 392 680 q 463 680 529 649 q 561 634 573 634 q 582 634 601 639 q 607 640 615 640 q 641 640 660 617 q 707 560 707 476 q 707 417 666 390 q 644 375 617 375 q 592 375 576 386 q 561 396 546 424 q 525 462 512 479 q 499 496 479 510 q 432 543 380 543 q 330 543 301 507 q 271 470 271 409 q 271 325 313 255 q 371 162 479 162 q 518 162 557 175 q 596 188 617 209 q 636 227 647 227 q 665 227 677 211 q 689 195 689 173 q 689 145 672 109 q 655 74 631 54 q 621 46 588 40 q 570 36 539 21 q 467 -13 389 -13 q 307 -13 226 23 q 132 66 77 154 q 23 239 23 333 q 23 441 91 530 q 149 608 244 649 q 315 680 392 680 z"},"W":{"x_min":0,"x_max":1040,"ha":1040,"o":"m 454 493 l 439 527 q 426 557 407 567 q 372 585 372 614 q 372 676 559 676 q 653 676 702 661 q 718 656 728 644 q 738 632 738 618 q 738 606 734 600 q 729 593 708 575 q 696 564 696 553 q 696 536 714 497 l 742 437 q 761 396 769 385 q 777 375 788 375 q 799 375 807 387 q 815 400 828 437 l 851 505 q 861 535 861 549 q 861 569 840 575 q 799 588 799 622 q 799 651 831 664 q 863 677 936 677 q 983 677 1009 666 q 1046 651 1046 619 q 1046 605 1039 595 q 1033 584 1013 567 q 1000 556 992 543 q 985 531 971 491 l 885 264 q 821 105 808 75 q 795 45 781 21 q 770 3 757 -4 q 744 -11 722 -11 q 692 -11 675 2 q 657 15 645 44 l 548 273 q 540 292 536 297 q 532 302 525 302 q 515 302 508 290 q 500 278 480 227 l 414 62 q 395 17 378 3 q 361 -12 327 -12 q 296 -12 279 3 q 261 18 246 55 l 66 514 q 55 542 51 548 q 47 553 25 564 q 0 577 0 607 q 0 676 171 676 q 258 676 297 664 q 335 652 335 616 q 335 604 333 599 q 331 594 319 577 q 313 567 313 554 q 313 529 346 452 l 366 405 q 378 376 383 370 q 387 364 395 364 q 414 364 434 418 l 454 474 q 456 479 456 483 q 456 487 454 493 z"},"A":{"x_min":0,"x_max":827,"ha":827,"o":"m 650 337 l 743 140 q 756 112 765 104 q 773 95 792 92 q 827 87 827 57 q 827 21 784 5 q 741 -10 643 -10 q 533 -10 479 -1 q 455 3 441 17 q 426 30 426 49 q 426 64 434 72 q 441 80 462 87 q 485 95 485 113 q 485 146 445 152 q 403 158 326 158 q 261 158 248 150 q 240 145 234 132 q 229 120 229 108 q 229 97 233 94 q 237 91 260 83 q 290 75 290 48 q 290 -10 150 -10 q 71 -10 34 1 q 0 11 0 46 q 0 61 8 69 q 15 78 35 84 q 66 96 83 116 q 99 136 129 203 l 198 354 q 236 437 249 478 q 262 519 263 559 q 263 601 268 617 q 272 633 289 649 q 322 683 375 683 q 424 683 469 645 q 531 592 650 337 z m 311 276 l 406 276 q 433 276 433 288 q 433 304 396 367 q 379 396 371 405 q 362 415 352 415 q 334 415 323 382 q 321 378 309 348 q 288 298 288 288 q 288 276 311 276 z"},"f":{"x_min":0,"x_max":424,"ha":424,"o":"m 306 396 l 367 396 q 382 396 388 391 q 395 386 394 375 l 390 317 q 389 300 385 295 q 380 291 365 291 q 362 291 349 292 q 340 292 334 292 q 314 292 307 279 q 299 265 299 228 q 299 176 311 141 q 315 126 323 119 q 332 112 351 106 q 394 94 394 59 q 394 22 344 6 q 293 -10 179 -10 q 10 -10 10 58 q 10 74 17 82 q 24 90 48 100 q 74 112 79 144 q 87 191 87 246 q 87 271 79 280 q 70 290 48 289 q 21 289 14 292 q 7 294 7 305 l 11 366 q 12 381 16 385 q 21 389 40 390 q 58 391 58 407 q 58 414 44 438 q 22 479 22 520 q 22 579 63 617 q 123 672 235 672 q 328 672 383 628 q 425 595 425 551 q 425 519 404 497 q 383 476 352 476 q 317 476 285 500 q 277 506 248 539 q 227 561 206 561 q 192 561 182 551 q 172 542 172 527 q 172 489 246 445 q 268 431 276 423 q 284 416 291 401 q 294 396 306 396 z"},"Q":{"x_min":0,"x_max":781,"ha":781,"o":"m 394 680 q 465 680 542 649 q 643 608 701 510 q 754 420 754 323 q 754 214 690 126 q 661 85 617 54 q 574 23 528 10 q 517 7 517 0 q 517 -17 560 -30 q 603 -43 659 -43 q 693 -43 724 -30 q 730 -27 735 -27 q 743 -27 750 -39 q 758 -51 758 -63 q 758 -88 727 -116 q 695 -145 645 -161 q 594 -178 541 -178 q 478 -178 404 -154 q 331 -130 189 -63 q 165 -51 133 -43 q 102 -35 82 -35 q 75 -35 65 -37 q 60 -37 56 -37 q 46 -37 40 -29 q 34 -21 34 -9 q 34 14 49 29 q 72 52 106 52 l 133 52 q 144 52 144 62 q 144 69 124 92 q 78 145 57 190 q 23 261 23 338 q 23 441 78 522 q 130 601 230 645 q 312 680 394 680 z m 346 539 q 307 539 285 512 q 264 486 264 440 q 264 386 281 322 q 298 258 328 202 q 368 125 428 125 q 466 125 491 152 q 517 179 517 221 q 517 275 497 345 q 478 415 447 468 q 408 537 346 539 z"},"w":{"x_min":0,"x_max":989,"ha":989,"o":"m 580 84 l 530 165 q 512 192 507 198 q 502 203 494 203 q 476 203 458 171 l 376 30 q 353 -10 323 -10 q 305 -10 290 2 q 275 15 257 44 l 111 288 q 74 347 54 365 q 44 373 18 380 q 7 384 0 394 q -7 404 -7 416 q -7 454 51 469 q 110 483 179 483 q 335 483 335 425 q 335 415 320 393 q 317 388 317 383 q 317 373 340 330 q 365 282 384 282 q 395 282 411 306 q 428 331 428 346 q 428 361 420 370 q 413 379 386 398 q 369 410 369 426 q 369 464 447 476 q 495 483 559 483 q 632 483 665 471 q 698 458 698 431 q 698 419 694 413 q 690 406 673 388 q 667 382 667 373 q 667 360 690 317 q 709 280 726 280 q 743 280 770 328 q 790 363 790 375 q 790 384 774 404 q 763 417 763 434 q 763 459 786 469 q 818 483 879 483 q 921 483 953 477 q 972 473 983 461 q 995 449 995 433 q 995 417 981 407 q 979 404 947 393 q 929 386 917 374 q 906 361 889 328 l 767 92 q 713 -12 672 -12 q 655 -12 634 10 q 612 33 580 84 z"},"-":{"x_min":0,"x_max":284,"ha":284,"o":"m 85 349 q 97 349 111 347 q 170 341 201 341 q 233 341 247 343 q 264 346 269 346 q 284 346 284 323 q 284 302 275 270 q 266 237 251 207 q 239 184 231 176 q 223 167 212 167 q 203 167 188 170 q 145 177 88 177 q 64 177 44 175 q 28 174 20 174 q 0 174 0 197 q 0 213 11 250 q 23 287 34 307 q 47 331 57 339 q 68 348 85 349 z"},"E":{"x_min":0,"x_max":691,"ha":691,"o":"m 121 667 l 372 667 q 448 667 483 670 q 518 673 551 683 q 561 686 567 686 q 592 686 612 658 q 644 614 644 551 q 644 519 631 501 q 617 482 594 482 q 578 482 569 489 q 560 496 544 519 q 523 551 490 562 q 457 573 382 573 q 326 573 313 553 q 307 542 306 524 q 305 506 305 432 q 305 403 314 396 q 324 389 366 389 q 386 389 396 397 q 405 406 407 428 q 411 456 414 467 q 418 477 428 485 q 438 494 452 494 q 472 494 486 475 q 496 460 503 425 q 510 389 510 350 q 510 272 486 223 q 473 196 446 196 q 430 196 423 205 q 417 213 414 240 q 406 295 349 295 q 327 295 319 281 q 311 268 311 230 q 311 207 314 171 q 317 134 321 123 q 325 108 345 102 q 365 97 413 97 q 486 97 523 115 q 560 134 583 184 q 597 212 608 222 q 619 231 637 231 q 657 231 671 214 q 684 196 684 169 q 684 140 669 96 q 654 52 632 18 q 621 1 613 -5 q 606 -10 595 -10 q 585 -10 568 -7 q 537 -1 484 0 l 70 0 q 45 0 32 11 q 18 22 18 42 q 18 56 24 62 q 30 69 51 79 q 65 85 73 94 q 80 104 83 122 q 100 195 100 320 q 100 509 76 558 q 71 568 65 572 q 60 576 41 581 q 13 589 13 618 q 13 634 22 646 q 32 658 47 662 q 66 667 121 667 z"},"s":{"x_min":0,"x_max":477,"ha":477,"o":"m 214 486 q 238 486 293 476 q 305 474 312 474 q 320 474 344 482 q 355 487 363 487 q 386 487 409 458 q 427 435 439 408 q 451 380 451 360 q 451 341 437 328 q 423 315 403 315 q 386 315 372 323 q 359 332 329 360 q 298 390 277 390 q 264 390 254 380 q 244 370 244 356 q 244 333 290 312 q 372 274 416 230 q 453 193 453 140 q 453 72 394 26 q 342 -13 268 -13 q 249 -13 199 -7 q 151 -1 146 -1 q 139 -1 131 -3 q 117 -5 110 -5 q 87 -5 74 7 q 54 25 37 64 q 20 103 20 130 q 20 175 55 175 q 69 175 80 166 q 92 157 128 118 q 148 97 162 89 q 175 81 190 81 q 206 81 216 89 q 226 98 226 112 q 226 134 188 152 q 109 190 74 231 q 40 272 40 326 q 40 384 75 426 q 126 486 214 486 z"},">":{"x_min":0,"x_max":500,"ha":500,"o":"m 33 -1 l 33 216 l 236 340 l 35 463 l 33 679 l 467 430 l 467 248 z"},"l":{"x_min":0,"x_max":365,"ha":365,"o":"m 297 387 l 297 230 q 297 126 301 109 q 304 92 325 83 q 343 75 349 68 q 355 62 355 49 q 355 33 344 20 q 332 6 313 1 q 278 -10 194 -10 q 100 -10 62 4 q 44 11 33 24 q 22 38 22 52 q 22 64 28 70 q 34 77 55 85 q 74 94 78 131 q 86 194 86 312 q 86 431 79 465 q 72 499 45 516 q 24 527 17 538 q 9 548 9 563 q 9 587 32 605 q 55 623 105 638 q 139 648 193 658 q 247 667 271 667 q 310 667 310 619 q 310 604 305 547 q 298 460 297 387 z"},"8":{"x_min":0,"x_max":600,"ha":600,"o":"m 292 619 q 395 619 481 585 q 528 566 558 528 q 579 500 579 463 q 579 406 516 365 q 497 353 497 346 q 497 339 520 323 q 551 301 570 266 q 589 230 589 193 q 589 136 548 83 q 476 -13 318 -13 q 209 -13 125 25 q 67 52 35 98 q 11 133 11 179 q 11 242 69 283 q 90 299 90 307 q 90 313 72 331 q 25 375 25 437 q 25 523 111 574 q 186 619 292 619 z m 314 528 q 292 528 278 517 q 264 506 264 490 q 264 465 299 439 q 339 410 364 410 q 376 410 387 427 q 397 444 397 465 q 397 494 375 509 q 349 528 314 528 z m 198 238 q 187 238 180 227 q 173 217 173 200 q 173 181 183 159 q 193 136 208 122 q 243 86 293 86 q 323 86 341 99 q 359 112 359 134 q 359 158 342 173 q 325 188 271 213 q 219 237 198 238 z"},"\\":{"x_min":0,"x_max":472,"ha":472,"o":"m 312 23 l 136 424 q 109 488 51 598 q 39 621 39 638 q 39 676 120 676 q 142 676 152 667 q 163 658 172 631 q 180 610 195 574 q 214 528 240 463 l 416 61 q 438 12 461 -35 q 500 -108 506 -123 q 513 -137 513 -148 q 513 -169 486 -180 q 462 -190 436 -190 q 406 -190 390 -163 q 383 -152 360 -91 q 348 -58 312 23 z"},"e":{"x_min":0,"x_max":530,"ha":530,"o":"m 470 219 l 240 219 q 225 219 225 206 q 225 174 260 146 q 294 118 333 118 q 357 118 385 127 q 414 136 433 149 q 449 161 459 161 q 472 161 484 145 q 496 129 496 113 q 496 78 452 45 q 375 -13 273 -13 q 170 -13 101 46 q 67 76 45 117 q 17 172 17 233 q 17 315 66 381 q 109 438 176 465 q 226 486 284 486 q 376 486 441 434 q 474 407 494 371 q 517 330 517 291 q 517 259 504 239 q 491 219 470 219 z m 253 310 l 302 310 q 333 310 333 339 q 333 365 318 382 q 303 398 279 398 q 251 398 236 377 q 221 357 221 336 q 221 322 228 316 q 235 310 253 310 z"},"b":{"x_min":0,"x_max":632,"ha":632,"o":"m 284 637 l 278 447 q 278 440 278 436 q 278 426 284 426 q 288 426 304 439 q 361 486 430 486 q 498 486 550 437 q 616 375 616 275 q 616 133 510 48 q 434 -13 331 -13 q 280 -13 240 0 q 199 13 150 44 q 143 48 139 48 q 133 48 108 39 q 96 34 79 34 q 48 34 48 54 q 48 60 51 68 q 61 100 64 147 q 67 194 67 295 l 67 430 q 67 480 63 493 q 60 506 42 513 q 16 524 6 534 q -3 545 -3 561 q -3 594 66 625 q 104 642 161 654 q 218 667 259 667 q 285 667 284 637 z m 326 339 q 300 339 288 321 q 279 308 279 266 q 279 151 287 111 q 293 74 328 74 q 364 74 382 104 q 401 134 401 192 q 401 277 370 316 q 352 338 326 339 z"},"%":{"x_min":0,"x_max":811,"ha":811,"o":"m 222 677 q 284 677 333 638 q 398 587 398 514 q 398 478 381 444 q 363 410 332 385 q 272 338 191 338 q 110 338 59 386 q 13 429 13 497 q 13 575 69 624 q 97 648 138 662 q 180 677 222 677 z m 188 601 q 176 601 167 591 q 159 581 159 565 q 159 517 180 465 q 189 441 198 432 q 206 423 220 423 q 247 423 247 460 q 247 517 225 567 q 211 600 188 601 z m 621 334 q 682 334 732 295 q 797 245 797 172 q 797 136 779 102 q 761 67 730 42 q 670 -4 590 -4 q 508 -4 458 43 q 412 87 412 154 q 412 233 468 281 q 496 306 537 320 q 579 334 621 334 z m 587 259 q 574 259 566 249 q 558 239 558 223 q 558 174 578 123 q 587 99 596 90 q 604 81 618 81 q 646 81 646 118 q 646 174 624 225 q 610 258 587 259 z m 308 243 l 456 493 q 515 596 536 638 q 548 663 559 672 q 571 680 592 680 q 639 680 639 657 q 639 641 601 585 q 572 543 520 456 l 369 201 q 322 115 282 42 q 269 14 258 5 q 248 -4 231 -4 q 207 -4 191 3 q 175 10 175 21 q 175 31 185 46 q 199 67 266 172 z"},"m":{"x_min":0,"x_max":964,"ha":964,"o":"m 255 483 q 283 483 283 443 q 283 443 283 435 q 283 427 283 422 q 283 396 298 396 q 307 396 324 417 q 351 447 391 465 q 431 483 473 483 q 554 483 586 423 q 598 401 606 401 q 611 401 631 421 q 695 483 775 483 q 838 483 878 448 q 920 412 920 340 q 920 324 919 287 q 918 274 918 210 q 918 169 918 153 q 917 143 917 138 q 917 107 937 83 q 949 69 951 65 q 954 60 954 52 q 954 -10 807 -10 q 742 -10 702 5 q 663 21 663 46 q 663 56 665 61 q 668 66 684 88 q 699 108 699 222 q 699 288 690 313 q 679 344 647 344 q 631 344 618 334 q 606 324 602 309 q 598 292 597 215 q 599 133 602 116 q 606 98 627 67 q 632 60 632 48 q 632 -10 480 -10 q 389 -10 357 4 q 332 15 332 42 q 332 54 335 59 q 338 64 356 82 q 367 92 370 101 q 374 110 375 134 q 378 188 378 242 q 378 338 330 338 q 293 338 286 297 q 280 258 280 187 q 280 133 282 116 q 285 100 294 82 q 306 61 306 47 q 306 16 262 3 q 213 -10 155 -10 q 80 -10 45 2 q 10 14 10 40 q 10 50 14 57 q 19 63 36 78 q 58 98 61 133 q 66 194 66 259 q 66 305 62 323 q 57 342 42 353 q 27 364 23 370 q 19 376 19 386 q 19 419 70 438 q 194 482 255 483 z"},"#":{"x_min":0,"x_max":600,"ha":600,"o":"m 129 117 l 132 138 q 134 157 134 157 q 134 173 110 173 q 104 173 74 170 q 68 170 63 170 q 42 170 42 185 q 42 191 57 220 q 72 249 82 261 q 97 281 118 281 q 124 281 131 280 q 136 280 140 280 q 152 280 155 298 l 158 326 q 159 330 159 333 q 158 346 144 346 q 136 346 98 344 q 90 343 87 343 q 66 343 66 358 q 66 365 81 393 q 95 420 105 435 q 121 455 142 455 q 148 455 155 454 q 161 453 165 453 q 176 453 179 472 l 182 490 q 185 514 185 558 q 186 580 199 589 q 213 598 245 610 q 278 622 291 622 q 308 622 308 607 q 308 602 305 590 q 302 582 297 543 l 287 472 q 286 463 286 462 q 285 449 307 449 l 333 449 q 347 449 352 453 q 357 458 359 472 l 361 490 q 365 517 365 557 q 365 579 379 589 q 393 599 426 610 q 458 622 472 622 q 478 622 483 617 q 488 613 488 607 q 488 602 484 590 q 482 582 477 543 l 467 472 q 466 463 466 460 q 466 449 483 449 q 518 449 528 450 q 538 452 542 452 q 557 452 557 436 q 557 426 533 378 q 513 340 491 340 q 483 340 469 343 q 463 344 460 344 q 449 344 446 325 l 443 302 q 442 293 442 290 q 442 275 469 275 q 488 275 504 277 q 513 278 517 278 q 533 278 533 264 q 533 255 521 229 q 509 203 498 187 q 483 167 467 167 q 458 167 445 169 q 439 170 436 170 q 425 170 422 153 q 415 107 414 62 q 413 34 399 23 q 388 14 353 0 q 317 -13 306 -13 q 291 -13 291 4 q 291 9 293 20 q 301 62 309 117 l 313 145 q 314 151 314 156 q 314 173 293 173 l 265 173 q 244 173 242 153 l 241 142 q 235 101 234 62 q 233 34 219 23 q 208 14 173 0 q 137 -13 126 -13 q 110 -13 110 5 q 110 9 113 20 q 121 62 129 117 z m 279 276 l 312 276 q 324 276 328 279 q 333 283 334 296 l 338 323 q 339 332 339 334 q 339 346 321 346 l 289 346 q 276 346 272 343 q 268 339 267 326 l 263 299 q 262 293 262 288 q 262 276 279 276 z"},",":{"x_min":0,"x_max":300,"ha":300,"o":"m 142 224 q 166 224 189 212 q 213 201 229 181 q 266 135 266 64 q 266 25 251 -24 q 237 -72 213 -112 q 175 -176 133 -176 q 114 -176 99 -165 q 84 -154 84 -139 q 84 -131 103 -102 q 114 -84 123 -62 q 131 -40 131 -29 q 131 -11 115 -5 q 82 7 68 19 q 27 54 27 109 q 27 153 56 185 q 92 224 142 224 z"},"n":{"x_min":0,"x_max":671,"ha":671,"o":"m 611 306 l 618 134 q 619 115 624 105 q 629 96 654 70 q 661 62 661 48 q 661 16 623 3 q 584 -10 485 -10 q 417 -10 390 2 q 361 14 361 42 q 361 51 364 56 q 367 61 383 79 q 403 99 403 215 q 403 283 387 315 q 375 341 340 341 q 308 341 295 320 q 283 299 283 244 l 283 147 q 283 118 287 107 q 291 97 311 66 q 316 57 316 46 q 316 17 276 3 q 236 -10 151 -10 q 16 -10 16 46 q 16 58 20 64 q 24 70 40 81 q 52 90 56 102 q 59 114 62 161 q 65 217 65 278 q 65 312 60 322 q 55 333 31 348 q 10 361 10 380 q 10 399 27 412 q 44 424 97 443 q 144 460 188 471 q 231 483 247 483 q 262 483 272 472 q 282 461 282 447 q 282 445 281 435 q 281 431 281 428 q 281 404 300 404 q 312 404 325 423 q 367 483 447 483 q 509 483 553 451 q 583 428 596 397 q 608 366 611 306 z"},"h":{"x_min":0,"x_max":679,"ha":679,"o":"m 290 643 l 284 438 q 283 401 306 401 q 318 401 329 417 q 376 486 456 486 q 533 486 579 439 q 600 418 608 389 q 617 360 618 307 l 622 130 q 623 107 628 97 q 634 86 654 70 q 668 59 668 43 q 668 -10 509 -10 q 368 -10 368 40 q 368 48 370 52 q 373 57 387 76 q 408 103 408 210 q 408 275 396 305 q 379 345 338 345 q 308 345 294 324 q 284 308 284 265 l 284 171 q 287 108 290 100 q 292 92 312 69 q 321 59 321 45 q 321 -10 178 -10 q 10 -10 10 47 q 10 61 15 68 q 21 75 42 89 q 60 103 67 160 q 74 218 74 352 q 74 457 68 498 q 66 513 61 520 q 56 527 42 534 q 12 550 12 570 q 12 595 35 610 q 58 625 123 643 q 210 667 263 667 q 291 667 290 643 z"},"z":{"x_min":0,"x_max":514,"ha":514,"o":"m 268 474 l 397 474 q 442 474 455 472 q 467 471 474 464 q 482 456 482 442 q 482 424 466 396 l 336 166 q 320 137 320 125 q 320 102 355 102 q 380 102 395 112 q 410 122 423 147 q 434 169 441 177 q 449 185 459 185 q 480 185 494 167 q 508 150 508 124 q 508 93 491 59 q 475 24 449 1 q 430 -16 413 -16 q 406 -16 394 -11 q 370 0 337 0 l 82 0 q 17 0 17 38 q 17 46 21 55 q 26 64 56 113 l 167 293 q 199 343 199 356 q 199 375 158 375 q 137 375 124 367 q 112 359 98 337 q 82 311 73 303 q 64 296 50 296 q 31 296 19 311 q 7 326 7 349 q 7 393 37 443 q 65 492 91 492 q 97 492 106 488 q 133 479 149 478 q 165 476 268 474 z"},"B":{"x_min":0,"x_max":717,"ha":717,"o":"m 284 0 l 219 0 q 150 -1 118 -3 q 90 -5 78 -5 q 48 -5 30 10 q 13 25 13 46 q 13 60 20 67 q 26 75 50 92 q 64 102 70 122 q 75 143 82 211 q 91 318 91 474 q 91 531 83 550 q 76 568 48 581 q 16 594 16 621 q 16 642 35 656 q 54 669 84 669 q 101 669 127 668 q 170 666 220 666 q 256 666 364 669 q 397 670 425 670 q 490 670 530 659 q 569 649 599 624 q 646 583 646 516 q 646 482 632 450 q 618 418 594 399 q 577 385 577 374 q 577 362 598 354 q 638 337 670 299 q 704 260 704 200 q 704 130 653 72 q 585 -5 452 -5 q 434 -5 363 -2 q 299 0 284 0 z m 318 530 l 318 430 q 318 406 324 396 q 330 386 345 386 q 381 386 398 408 q 416 431 416 478 q 416 524 398 549 q 380 574 348 574 q 331 574 324 565 q 318 555 318 530 z m 318 249 l 318 203 q 318 139 327 118 q 336 97 365 97 q 439 97 439 184 q 439 292 356 292 q 334 292 326 283 q 318 273 318 249 z"},"K":{"x_min":0,"x_max":827,"ha":827,"o":"m 584 533 l 532 483 q 503 456 503 433 q 503 421 510 409 q 516 396 534 375 l 717 164 q 741 136 750 128 q 760 121 778 112 q 805 101 816 87 q 827 74 827 52 q 827 0 753 0 l 568 0 q 549 0 538 8 q 527 17 503 49 q 465 102 402 169 q 375 199 364 208 q 353 217 344 217 q 315 217 315 164 q 315 120 334 104 q 337 101 350 93 q 376 76 376 50 q 376 18 333 4 q 290 -10 188 -10 q 98 -10 57 1 q 39 6 28 19 q 17 32 17 48 q 17 74 46 92 q 60 101 65 112 q 71 122 76 147 q 85 202 85 317 q 85 454 75 511 q 71 534 64 544 q 58 555 41 564 q 13 580 13 608 q 13 631 30 646 q 47 660 85 667 q 135 677 210 677 q 287 677 324 662 q 357 648 357 613 q 357 599 352 591 q 347 583 325 565 q 317 559 311 533 q 304 507 304 482 q 304 441 323 441 q 334 441 344 451 q 355 460 387 500 q 423 545 423 562 q 423 570 414 588 q 408 600 408 610 q 408 646 447 661 q 486 676 580 676 q 655 676 691 667 q 736 654 736 615 q 736 599 727 586 q 717 572 704 568 q 693 565 656 564 q 630 564 617 558 q 604 553 584 533 z"},"R":{"x_min":0,"x_max":776,"ha":776,"o":"m 339 280 q 320 280 315 269 q 310 258 310 217 q 310 155 318 120 q 320 110 325 105 q 330 100 344 92 q 373 76 373 49 q 373 17 332 4 q 292 -10 194 -10 q 14 -10 14 59 q 14 70 19 77 q 24 84 43 97 q 65 111 73 131 q 80 150 83 197 q 85 232 85 446 q 85 514 79 538 q 72 562 49 574 q 28 584 21 593 q 13 601 13 615 q 13 633 27 646 q 41 660 66 666 q 87 671 124 671 q 140 671 204 667 q 216 666 243 666 q 287 666 360 671 q 406 675 425 675 q 529 675 598 625 q 659 579 659 499 q 659 454 638 417 q 616 380 579 361 q 563 354 563 343 q 563 329 587 320 q 638 301 662 264 q 686 226 696 148 q 701 116 709 107 q 717 97 748 88 q 757 85 763 76 q 770 66 770 55 q 770 40 758 24 q 746 9 728 0 q 687 -19 615 -19 q 520 -19 479 31 q 460 54 448 88 q 435 122 417 194 q 406 241 388 260 q 371 279 339 280 z m 311 529 l 305 416 q 305 414 305 411 q 305 394 310 388 q 315 382 331 382 q 374 382 394 404 q 413 426 413 475 q 413 569 346 569 q 327 569 319 561 q 312 552 311 529 z"},"T":{"x_min":0,"x_max":701,"ha":701,"o":"m 228 667 l 485 667 q 527 668 561 678 q 576 682 587 682 q 626 682 664 623 q 701 564 701 502 q 701 460 675 440 q 656 426 628 426 q 603 426 583 440 q 564 455 546 488 q 530 518 521 527 q 511 537 498 537 q 480 537 472 521 q 464 506 464 472 l 464 198 q 464 156 473 137 q 482 118 506 108 q 533 97 542 87 q 552 77 552 59 q 552 24 504 7 q 457 -10 358 -10 q 237 -10 178 10 q 129 26 129 63 q 129 83 146 95 q 151 97 181 106 q 200 112 207 127 q 214 142 218 185 q 222 223 226 308 q 229 394 229 456 q 229 500 222 519 q 215 537 200 537 q 181 537 163 510 q 130 460 109 444 q 84 425 61 425 q 34 425 17 445 q 0 464 0 495 q 0 525 14 562 q 27 598 50 629 q 87 679 124 679 q 133 679 146 676 q 172 670 189 668 q 206 667 228 667 z"},"P":{"x_min":0,"x_max":684,"ha":684,"o":"m 101 230 l 101 487 q 101 537 94 550 q 87 563 57 572 q 13 584 13 616 q 13 638 32 649 q 50 661 85 661 q 97 661 144 660 l 173 660 q 254 660 268 661 q 282 662 367 669 q 396 672 419 672 q 499 672 562 640 q 670 583 670 460 q 670 360 594 300 q 522 244 420 244 q 395 244 357 248 q 337 249 332 249 q 318 249 318 233 l 318 230 l 321 150 q 322 126 330 115 q 337 104 361 91 q 393 74 393 54 q 393 23 346 7 q 299 -10 213 -10 q 32 -10 32 52 q 32 67 40 75 q 48 83 77 97 q 94 106 97 123 q 100 140 101 230 z m 321 549 l 321 383 q 321 364 330 360 q 344 353 365 353 q 397 353 419 371 q 451 397 451 458 q 451 521 414 550 q 391 568 357 568 q 321 568 321 549 z"},"|":{"x_min":0,"x_max":500,"ha":500,"o":"m 140 667 l 360 667 l 360 -167 l 140 -167 z"},"t":{"x_min":0,"x_max":463,"ha":463,"o":"m 309 358 l 309 193 q 309 164 323 146 q 337 127 360 127 q 379 127 410 145 q 417 149 425 149 q 437 149 446 135 q 456 121 456 104 q 456 74 423 46 q 354 -13 255 -13 q 177 -13 129 31 q 82 75 82 147 l 82 373 q 82 384 79 387 q 77 390 65 390 l 15 390 q 1 390 -3 394 q -7 399 -7 416 l -7 438 q -6 452 4 459 l 228 600 q 236 604 249 604 l 288 604 q 300 604 304 598 q 309 593 309 576 l 309 510 q 309 496 313 491 q 318 487 333 487 l 423 487 q 441 487 447 480 q 452 474 452 452 l 452 423 q 452 400 445 391 q 438 382 420 382 l 332 382 q 318 382 313 377 q 309 372 309 358 z"},"M":{"x_min":0,"x_max":884,"ha":884,"o":"m 503 202 l 444 71 q 429 38 420 26 q 411 15 399 15 q 389 15 380 24 q 375 30 356 67 q 336 104 324 133 l 259 278 q 246 308 231 308 q 216 308 214 282 q 211 225 211 176 q 211 125 216 107 q 219 96 225 91 q 230 86 255 74 q 271 65 271 45 q 271 -10 131 -10 q 13 -10 13 43 q 13 57 19 63 q 25 69 51 82 q 67 89 73 102 q 78 114 82 151 q 86 190 90 279 q 94 368 94 432 q 94 511 82 540 q 78 549 72 554 q 66 559 51 567 q 16 583 16 610 q 16 627 29 641 q 42 655 63 661 q 85 667 121 672 q 157 677 182 677 q 244 677 270 667 q 283 662 290 653 q 297 645 311 619 l 413 432 q 429 401 436 395 q 442 388 453 388 q 463 388 470 395 q 478 402 488 422 l 557 557 q 570 583 574 590 q 598 639 621 655 q 651 676 729 676 q 868 676 868 613 q 868 599 862 591 q 857 582 840 570 q 818 553 812 521 q 801 453 801 356 q 801 232 812 138 q 815 115 822 107 q 828 99 853 82 q 871 70 871 51 q 871 17 825 2 q 802 -5 776 -8 q 750 -10 696 -10 q 614 -10 573 1 q 528 15 528 46 q 528 58 534 66 q 540 73 564 93 q 577 104 582 133 q 586 162 586 232 q 586 271 583 284 q 579 296 567 296 q 554 296 541 277 q 528 258 503 202 z"},"g":{"x_min":0,"x_max":578,"ha":578,"o":"m 538 513 q 550 513 559 499 q 568 485 568 466 q 568 446 556 421 q 543 396 526 380 q 515 371 515 365 q 515 363 516 353 q 517 343 517 334 q 517 276 478 237 q 443 202 387 182 q 332 163 266 163 q 250 163 234 165 q 221 166 214 166 q 188 166 188 140 q 188 124 205 114 q 222 104 251 104 q 271 104 309 110 q 389 121 427 121 q 484 121 516 102 q 542 87 556 61 q 571 35 571 4 q 571 -45 535 -91 q 492 -146 409 -172 q 343 -193 257 -193 q 149 -193 82 -160 q 50 -144 32 -119 q 13 -93 13 -66 q 13 -47 24 -31 q 34 -15 50 -8 q 65 -2 65 5 q 65 10 53 21 q 14 53 14 88 q 14 112 32 137 q 51 162 79 175 q 91 181 91 187 q 91 194 76 208 q 26 254 26 316 q 26 349 44 378 q 62 408 93 429 q 172 480 268 480 q 306 480 353 471 q 397 462 414 462 q 467 462 520 504 q 531 513 538 513 z m 272 412 q 248 412 233 393 q 218 375 218 344 q 218 291 234 259 q 250 228 277 228 q 303 228 318 247 q 333 267 333 300 q 333 353 317 382 q 301 411 272 412 z m 166 -33 q 154 -33 154 -47 q 154 -76 185 -94 q 216 -111 266 -111 q 314 -111 341 -99 q 368 -86 368 -63 q 368 -51 358 -42 q 348 -34 333 -34 q 325 -34 310 -36 q 283 -40 249 -40 q 224 -40 201 -38 q 184 -36 173 -34 q 168 -33 166 -33 z"},"j":{"x_min":0,"x_max":369,"ha":369,"o":"m 303 444 l 303 12 q 303 -54 292 -90 q 282 -125 257 -146 q 232 -167 191 -180 q 150 -193 108 -193 q 61 -193 29 -174 q -3 -155 -3 -127 q -3 -114 6 -105 q 15 -96 27 -96 q 33 -96 43 -97 q 53 -99 55 -99 q 64 -99 71 -90 q 78 -82 78 -72 q 78 -67 77 -58 q 73 -40 73 -24 l 73 286 q 73 308 66 320 q 58 332 40 339 q 12 351 12 373 q 12 399 34 418 q 57 437 107 453 q 144 464 195 474 q 247 483 272 483 q 289 483 296 475 q 303 466 303 444 z m 199 667 q 242 667 267 651 q 292 635 292 608 q 292 570 254 548 q 194 514 110 514 q 75 514 53 527 q 25 545 25 576 q 25 618 85 642 q 146 667 199 667 z"},"i":{"x_min":0,"x_max":356,"ha":356,"o":"m 290 453 l 290 169 q 290 135 296 120 q 302 104 321 91 q 336 80 341 73 q 346 65 346 53 q 346 -10 187 -10 q 101 -10 50 4 q 33 9 23 21 q 12 33 12 49 q 12 62 18 69 q 23 77 45 93 q 60 104 66 129 q 73 155 73 205 q 73 221 71 265 q 68 310 67 317 q 64 337 40 348 q 10 361 10 387 q 10 417 49 433 q 104 454 167 468 q 229 483 263 483 q 290 483 290 453 z m 193 667 q 236 667 261 651 q 286 635 286 608 q 286 570 248 548 q 188 514 104 514 q 68 514 47 527 q 19 545 19 576 q 19 618 79 642 q 140 667 193 667 z"},"y":{"x_min":0,"x_max":619,"ha":619,"o":"m 484 246 l 419 69 q 396 3 371 -39 q 347 -81 316 -110 q 253 -170 164 -170 q 91 -170 46 -132 q 12 -103 12 -58 q 12 -20 36 6 q 60 31 95 31 q 130 31 152 8 q 162 -3 166 -11 q 169 -20 176 -48 q 181 -69 200 -69 q 215 -69 226 -56 q 236 -43 236 -23 q 236 0 210 53 l 93 304 q 74 343 65 353 q 56 362 24 376 q 14 380 7 392 q 0 403 0 414 q 0 458 86 473 q 144 483 218 483 q 270 483 299 473 q 339 458 339 424 q 339 412 328 396 q 317 380 317 368 q 317 356 323 343 q 328 331 344 300 q 363 266 377 266 q 392 266 408 296 q 424 326 424 354 q 424 376 412 391 q 394 413 394 428 q 394 453 427 468 q 460 483 516 483 q 619 483 619 433 q 619 415 609 404 q 598 393 570 383 q 547 375 533 354 q 512 321 484 246 z"},"@":{"x_min":0,"x_max":799,"ha":799,"o":"m 478 680 q 612 680 692 605 q 732 569 754 516 q 775 465 775 413 q 775 335 732 267 q 685 193 593 161 q 546 144 505 144 q 470 144 452 157 q 434 169 426 201 q 424 210 417 210 q 410 210 398 198 q 348 148 297 148 q 252 148 225 179 q 198 209 198 260 q 198 350 254 427 q 285 470 325 494 q 364 518 403 518 q 432 518 468 497 q 480 489 486 489 q 491 489 500 494 q 549 518 577 518 q 612 518 612 489 q 612 472 604 444 q 570 311 570 271 q 570 253 587 253 q 610 253 640 282 q 664 307 678 343 q 692 380 692 418 q 692 496 642 546 q 583 605 471 605 q 322 605 222 507 q 162 447 131 358 q 111 302 111 246 q 111 138 192 92 q 249 61 330 61 q 431 61 520 103 q 543 114 558 114 q 571 114 581 106 q 590 98 590 86 q 590 63 559 42 q 476 -13 335 -13 q 204 -13 126 41 q 71 79 46 143 q 27 191 27 246 q 27 358 88 463 q 164 594 302 648 q 380 680 478 680 z m 444 434 q 429 434 404 399 q 387 375 375 343 q 364 310 364 285 q 364 263 376 263 q 390 263 410 292 q 429 322 442 357 q 455 392 455 415 q 455 434 444 434 z"},".":{"x_min":0,"x_max":300,"ha":300,"o":"m 150 217 q 197 217 231 185 q 266 152 266 101 q 266 52 231 19 q 197 -13 150 -13 q 104 -13 70 19 q 35 52 35 102 q 35 153 70 185 q 104 217 150 217 z"},"p":{"x_min":0,"x_max":666,"ha":666,"o":"m 258 484 q 288 484 295 479 q 302 474 302 453 q 302 435 314 435 q 319 435 347 454 q 368 468 400 477 q 433 487 459 487 q 521 487 570 444 q 607 411 627 361 q 649 309 649 251 q 649 128 566 49 q 502 -13 420 -13 q 379 -13 335 6 q 326 10 321 10 q 306 10 306 -19 q 306 -58 332 -75 q 356 -91 361 -96 q 365 -102 365 -115 q 365 -145 333 -160 q 300 -176 240 -176 q 134 -176 55 -134 q 14 -112 14 -81 q 14 -66 20 -58 q 26 -51 44 -42 q 69 -31 75 0 q 81 31 83 177 q 80 297 75 312 q 73 316 69 318 q 65 319 45 323 q 29 326 20 338 q 10 349 10 365 q 10 385 23 400 q 37 415 68 429 q 188 483 258 484 z m 306 299 l 299 165 q 298 157 298 149 q 298 134 312 125 q 325 115 347 115 q 414 115 414 226 q 414 298 386 327 q 368 345 344 345 q 309 345 306 299 z"},"X":{"x_min":0,"x_max":795,"ha":795,"o":"m 507 391 l 694 157 q 710 136 720 129 q 729 122 746 116 q 773 107 784 96 q 795 85 795 66 q 795 49 783 33 q 771 18 751 11 q 722 0 678 -5 q 634 -10 556 -10 q 473 -10 431 0 q 407 5 393 19 q 378 32 378 48 q 378 69 398 83 q 417 95 417 104 q 417 128 361 203 q 354 212 348 212 q 343 212 337 205 q 313 176 296 148 q 278 120 278 111 q 278 104 298 88 q 317 73 317 51 q 317 17 279 5 q 229 -10 161 -10 q 83 -10 41 3 q 23 8 12 23 q 0 38 0 54 q 0 75 14 87 q 29 100 56 101 q 88 102 110 120 q 133 138 188 208 l 264 303 q 271 311 271 315 q 271 318 264 326 l 139 486 q 110 524 101 532 q 91 541 71 547 q 42 556 33 564 q 16 579 16 600 q 16 644 85 660 q 159 676 251 676 q 348 676 383 664 q 398 658 407 645 q 417 632 417 616 q 417 592 398 579 q 387 571 385 569 q 383 566 383 561 q 383 550 401 526 q 419 503 428 503 q 436 503 456 528 q 477 553 477 562 q 477 568 474 571 q 471 574 455 586 q 440 597 440 619 q 440 649 479 663 q 517 677 603 677 q 666 677 700 667 q 743 654 743 616 q 743 590 721 578 q 712 573 675 570 q 650 568 625 549 q 599 529 565 486 l 507 414 q 501 405 501 401 q 501 398 507 391 z"},"*":{"x_min":0,"x_max":600,"ha":600,"o":"m 167 568 l 230 544 q 238 542 241 542 q 248 542 249 555 l 250 558 l 247 625 l 247 631 q 247 661 256 669 q 265 676 300 676 q 330 676 340 672 q 350 667 352 652 q 354 639 354 625 l 351 558 q 351 542 359 542 q 362 542 370 544 l 433 568 q 455 576 465 576 q 476 576 481 569 q 487 563 494 545 q 506 513 507 496 q 508 478 466 466 l 401 448 q 388 444 388 437 q 388 434 394 425 l 436 373 q 455 349 455 336 q 455 323 422 300 q 394 280 383 280 q 370 280 349 310 l 312 366 q 305 375 300 375 q 295 375 288 366 l 251 310 q 231 280 217 280 q 206 280 178 300 q 146 322 146 336 q 146 348 165 373 l 206 425 q 212 434 212 437 q 212 444 199 448 l 134 466 q 94 478 94 495 q 94 513 108 551 q 118 575 135 575 q 146 575 167 568 z"},"Y":{"x_min":0,"x_max":780,"ha":780,"o":"m 214 677 q 310 677 360 667 q 383 662 397 649 q 411 636 411 620 q 411 607 400 594 q 385 574 385 565 q 385 547 413 509 q 431 484 447 484 q 457 484 467 491 q 477 499 492 519 q 511 542 511 557 q 511 565 509 570 q 507 574 493 591 q 483 602 483 621 q 483 676 633 676 q 717 676 743 668 q 759 664 769 650 q 780 636 780 621 q 780 601 768 590 q 755 580 725 575 q 697 569 677 553 q 656 538 602 479 q 535 407 519 373 q 502 339 502 272 q 502 215 507 167 q 509 137 516 126 q 523 114 544 103 q 580 84 580 57 q 580 -10 384 -10 q 303 -10 231 6 q 171 19 171 58 q 171 88 208 102 q 236 111 243 126 q 258 160 258 286 q 258 325 250 346 q 243 368 216 403 q 161 475 103 532 q 77 557 54 566 q 21 578 14 584 q 0 596 0 615 q 0 648 49 662 q 99 677 214 677 z"},"c":{"x_min":0,"x_max":526,"ha":526,"o":"m 297 486 q 384 486 450 443 q 513 401 513 340 q 513 297 484 271 q 457 246 418 246 q 377 246 357 275 q 351 285 338 323 q 325 364 288 364 q 261 364 243 340 q 225 317 225 283 q 225 224 267 179 q 301 142 353 142 q 377 142 394 146 q 410 150 437 163 q 444 167 452 167 q 469 167 481 151 q 494 135 494 114 q 494 92 476 68 q 458 44 429 26 q 365 -13 279 -13 q 178 -13 107 45 q 17 120 17 234 q 17 345 101 417 q 182 486 297 486 z"},"!":{"x_min":0,"x_max":308,"ha":308,"o":"m 157 198 q 199 198 229 167 q 260 135 260 93 q 260 50 229 18 q 197 -13 154 -13 q 111 -13 81 16 q 48 47 48 93 q 48 135 77 165 q 109 198 157 198 z m 154 660 q 198 660 228 628 q 269 587 269 512 q 269 462 251 405 q 234 348 205 303 q 172 252 152 252 q 133 252 97 317 q 71 365 55 419 q 40 474 40 520 q 40 575 65 613 q 96 660 154 660 z"},"/":{"x_min":0,"x_max":472,"ha":472,"o":"m 56 61 l 232 463 q 239 480 245 497 q 250 508 254 520 q 259 531 277 574 q 292 610 300 632 q 309 659 320 668 q 330 677 352 677 q 433 677 433 638 q 433 622 420 599 q 364 489 336 424 l 160 23 q 124 -59 112 -91 q 87 -157 77 -171 q 63 -190 36 -190 q 4 -190 -19 -178 q -41 -166 -41 -148 q -41 -137 -37 -127 q -33 -117 -7 -67 q 35 14 56 61 z"},"[":{"x_min":0,"x_max":499,"ha":499,"o":"m 306 513 l 306 -36 q 306 -81 316 -93 q 327 -105 368 -105 q 379 -105 404 -103 q 417 -102 427 -102 q 448 -102 460 -111 q 473 -120 473 -135 q 473 -148 464 -160 q 456 -172 443 -177 q 410 -190 291 -190 q 180 -190 158 -176 q 123 -154 123 -36 l 123 519 q 123 638 155 661 q 177 677 285 677 q 371 677 414 670 q 471 662 471 624 q 471 589 419 589 q 413 589 388 591 q 372 592 357 592 q 322 592 314 579 q 306 567 306 513 z"},"6":{"x_min":0,"x_max":600,"ha":600,"o":"m 243 635 q 264 635 312 620 q 337 612 355 600 q 373 588 373 579 q 373 572 367 564 q 361 557 331 522 q 312 501 296 472 q 281 442 281 427 q 281 419 285 414 q 290 409 296 409 q 301 409 331 420 q 372 435 407 435 q 469 435 519 396 q 590 341 590 249 q 590 176 547 109 q 468 -13 313 -13 q 184 -13 105 61 q 61 103 37 166 q 17 218 17 271 q 17 394 116 523 q 163 584 192 610 q 220 635 243 635 z m 296 296 q 274 296 262 281 q 250 266 250 239 q 250 199 278 159 q 307 119 337 119 q 357 119 369 131 q 381 143 381 163 q 381 195 367 231 q 352 266 331 283 q 315 296 296 296 z"},"r":{"x_min":0,"x_max":535,"ha":535,"o":"m 247 483 q 272 483 278 476 q 284 469 288 429 q 291 408 303 408 q 313 408 322 422 q 361 483 424 483 q 468 483 497 454 q 510 440 519 418 q 528 396 528 375 q 528 352 517 328 q 506 304 489 288 q 458 258 413 258 q 388 258 371 267 q 354 276 327 303 q 316 313 308 313 q 294 313 290 298 q 286 282 286 233 q 286 159 291 132 q 294 118 301 112 q 307 106 327 101 q 371 87 371 55 q 371 35 356 20 q 342 5 319 0 q 272 -10 181 -10 q 95 -10 50 5 q 10 19 10 53 q 10 78 39 98 q 53 107 59 115 q 64 123 66 136 q 74 180 74 300 q 74 322 69 332 q 64 341 49 347 q 15 361 15 387 q 15 410 39 427 q 62 444 119 460 q 194 483 247 483 z"},"2":{"x_min":0,"x_max":600,"ha":600,"o":"m 385 0 l 53 0 q 9 0 9 25 q 9 38 18 49 q 27 60 78 107 q 172 196 218 273 q 241 312 241 340 q 241 365 227 379 q 213 394 189 394 q 167 394 155 387 q 143 381 103 348 q 92 339 75 339 q 52 339 32 357 q 13 375 13 396 q 13 415 31 439 q 48 463 77 484 q 183 560 311 560 q 409 560 473 522 q 501 505 519 475 q 537 444 537 410 q 537 325 418 225 q 376 189 376 172 q 376 158 389 149 q 402 139 420 139 q 463 139 497 172 q 514 189 519 192 q 525 196 535 196 q 578 196 578 123 q 578 86 564 48 q 550 11 526 -17 q 500 -46 470 -46 q 458 -46 451 -41 q 443 -36 434 -21 q 425 -8 417 -4 q 408 0 385 0 z"},"{":{"x_min":0,"x_max":499,"ha":499,"o":"m 306 117 l 306 -5 q 306 -68 311 -79 q 317 -92 334 -97 q 352 -102 387 -102 q 389 -102 408 -102 q 415 -101 419 -101 q 473 -101 473 -135 q 473 -175 417 -184 q 375 -190 278 -190 q 193 -190 158 -157 q 123 -125 123 -46 l 123 107 q 123 151 112 169 q 101 188 68 197 q 35 207 35 243 q 35 280 68 290 q 101 299 112 317 q 123 335 123 379 l 123 533 q 123 611 158 644 q 193 676 278 676 q 385 676 425 668 q 448 664 460 652 q 473 639 473 622 q 473 588 419 588 q 414 588 408 588 q 389 588 386 588 q 340 588 323 579 q 308 570 306 545 q 306 537 306 491 l 306 370 q 305 282 258 252 q 254 250 254 245 q 254 238 271 225 q 288 210 297 183 q 306 156 306 117 z"},"9":{"x_min":0,"x_max":600,"ha":600,"o":"m 296 560 q 394 560 475 516 q 581 457 581 324 q 581 217 512 100 q 435 -31 331 -108 q 306 -125 289 -125 q 259 -125 212 -100 q 165 -75 165 -60 q 165 -49 194 -30 q 229 -7 255 34 q 279 72 279 95 q 279 113 260 113 q 253 113 227 110 q 223 110 213 110 q 135 110 87 155 q 52 188 32 236 q 12 285 12 337 q 12 441 92 499 q 176 560 296 560 z m 290 420 q 269 420 255 403 q 241 385 241 359 q 241 309 265 273 q 290 236 323 236 q 343 236 356 251 q 368 266 368 289 q 368 315 357 349 q 346 382 332 399 q 314 420 290 420 z"}," ":{"x_min":0,"x_max":250,"ha":250,"o":""},"I":{"x_min":0,"x_max":414,"ha":414,"o":"m 229 677 q 284 677 333 667 q 400 654 400 611 q 400 597 393 590 q 387 583 360 569 q 337 558 330 520 q 323 481 323 371 q 323 185 333 140 q 336 126 343 118 q 350 111 368 102 q 400 87 400 60 q 400 21 340 6 q 276 -10 183 -10 q 23 -10 23 51 q 23 73 55 92 q 79 106 83 132 q 92 188 92 368 q 92 493 80 528 q 73 548 47 564 q 27 578 20 586 q 13 595 13 609 q 13 630 33 642 q 54 655 105 665 q 166 677 229 677 z"},"H":{"x_min":0,"x_max":802,"ha":802,"o":"m 229 677 q 382 677 382 614 q 382 597 374 586 q 366 576 344 562 q 325 551 320 532 q 315 513 315 455 q 315 420 328 413 q 335 408 350 407 q 365 406 420 406 q 470 406 482 411 q 495 417 495 438 q 495 502 489 528 q 483 553 466 562 q 444 575 438 583 q 431 592 431 606 q 431 626 446 642 q 461 659 485 665 q 536 677 613 677 q 703 677 745 660 q 788 644 788 609 q 788 580 758 565 q 739 557 733 549 q 727 541 724 519 q 722 506 719 410 q 716 314 716 257 q 716 158 723 131 q 727 117 732 112 q 737 107 763 92 q 781 82 781 61 q 781 24 737 7 q 693 -10 594 -10 q 507 -10 465 7 q 428 23 428 56 q 428 83 457 99 q 471 107 476 115 q 481 123 486 144 q 495 185 495 244 q 495 275 486 282 q 477 290 438 290 q 351 290 327 280 q 317 276 315 257 q 312 233 312 199 q 312 144 328 119 q 333 111 353 99 q 374 87 374 61 q 374 26 326 8 q 279 -10 191 -10 q 111 -10 60 7 q 38 14 26 28 q 13 41 13 57 q 13 73 21 82 q 29 91 55 104 q 69 111 74 122 q 80 133 83 158 q 90 215 90 308 q 90 325 90 348 q 88 465 88 482 q 88 524 81 537 q 73 551 41 567 q 20 577 20 598 q 20 647 115 666 q 171 677 229 677 z"},"4":{"x_min":0,"x_max":600,"ha":600,"o":"m 511 545 l 511 208 q 511 192 515 187 q 519 181 530 181 l 551 181 q 574 182 575 153 l 575 54 q 575 28 548 25 q 531 23 527 19 q 522 14 522 -2 l 522 -60 q 524 -91 494 -92 l 327 -92 q 310 -92 304 -86 q 299 -80 299 -60 l 299 -10 q 299 11 291 19 q 283 27 264 27 l 73 27 q 39 27 25 41 q 11 56 11 91 q 11 138 22 164 q 36 197 101 274 l 225 423 q 318 535 363 566 q 383 580 411 588 q 440 597 465 597 q 489 597 500 585 q 511 573 511 545 z m 306 292 l 306 315 q 306 359 281 359 q 263 359 247 339 l 171 247 q 139 207 139 189 q 139 176 152 173 q 166 169 220 167 l 259 167 q 284 167 292 173 q 301 178 303 195 q 306 222 306 292 z"},"~":{"x_min":0,"x_max":667,"ha":667,"o":"m 194 215 l 91 302 q 113 359 133 390 q 181 462 253 462 q 271 462 284 458 q 298 455 363 433 q 414 416 425 416 q 440 416 450 425 q 459 434 476 465 l 579 377 q 559 327 545 302 q 531 278 510 257 q 471 216 418 216 q 403 216 387 221 q 372 225 309 246 q 257 264 245 264 q 220 264 194 215 z"},"D":{"x_min":0,"x_max":802,"ha":802,"o":"m 224 0 l 189 0 q 158 0 120 -3 q 96 -5 87 -5 q 54 -5 34 10 q 13 25 13 50 q 13 67 22 76 q 31 86 52 92 q 71 97 78 108 q 85 119 89 150 q 93 187 96 293 q 99 399 99 503 q 99 544 93 558 q 86 572 63 580 q 29 593 29 624 q 29 647 52 661 q 76 674 117 674 q 131 674 149 674 q 190 672 209 672 q 279 672 367 677 q 385 678 413 678 q 525 678 590 652 q 687 614 735 524 q 779 445 779 336 q 779 281 763 225 q 747 170 719 129 q 663 47 563 14 q 504 -5 438 -5 l 379 -3 l 328 -2 q 269 0 224 0 z m 327 529 l 327 151 q 327 121 340 108 q 353 95 384 95 q 526 95 526 312 q 526 431 493 497 q 457 570 369 570 q 346 570 336 561 q 327 551 327 529 z"},"^":{"x_min":0,"x_max":500,"ha":500,"o":"m 189 328 l 0 328 l 129 672 l 371 672 l 500 328 l 312 328 l 250 525 z"},"0":{"x_min":0,"x_max":600,"ha":600,"o":"m 290 563 q 356 563 418 531 q 502 487 544 400 q 575 336 575 265 q 575 134 475 50 q 398 -13 300 -13 q 191 -13 115 58 q 25 141 25 281 q 25 417 107 495 q 180 563 290 563 z m 278 418 q 233 418 233 341 q 233 240 271 159 q 287 128 312 128 q 356 128 356 207 q 356 250 347 301 q 337 351 323 382 q 307 417 278 418 z"},"F":{"x_min":0,"x_max":661,"ha":661,"o":"m 377 566 q 344 566 336 549 q 330 536 325 499 q 320 462 320 432 q 320 414 332 407 q 343 400 375 400 q 397 400 407 408 q 417 416 421 434 q 433 487 467 487 q 527 487 527 345 q 527 254 501 212 q 485 186 458 186 q 429 186 425 225 q 422 250 419 260 q 415 270 405 279 q 389 294 358 294 q 336 294 328 287 q 320 279 321 257 q 321 253 321 211 q 321 127 338 108 q 344 101 350 99 q 356 97 382 93 q 395 91 404 80 q 413 68 413 54 q 413 16 369 5 q 305 -10 190 -10 q 90 -10 52 2 q 35 7 24 21 q 13 36 13 53 q 13 74 29 87 q 33 90 56 100 q 83 110 88 149 q 97 209 97 423 q 97 516 91 543 q 84 570 60 581 q 36 592 28 600 q 21 608 21 623 q 21 645 42 659 q 62 673 93 673 q 113 673 150 670 q 230 664 341 664 q 518 664 580 674 q 588 675 592 675 q 609 675 625 655 q 668 601 668 534 q 668 504 654 486 q 640 468 617 468 q 600 468 591 475 q 582 481 546 522 q 524 548 493 556 q 462 563 377 566 z"},"`":{"x_min":0,"x_max":500,"ha":500,"o":"m 193 698 q 228 698 250 690 q 272 682 272 669 q 272 666 267 656 q 265 652 265 647 q 265 641 270 635 q 274 630 296 614 q 321 596 326 589 q 331 583 331 569 q 331 533 281 533 q 191 533 118 590 q 76 622 76 645 q 76 668 109 683 q 143 698 193 698 z"},"k":{"x_min":0,"x_max":734,"ha":734,"o":"m 301 643 l 297 490 q 296 467 296 422 q 296 373 298 364 q 301 344 318 344 q 333 344 363 363 q 394 382 394 391 q 394 396 383 411 q 375 421 375 430 q 375 483 505 483 q 572 483 611 469 q 627 464 637 451 q 647 438 647 422 q 647 400 626 392 q 622 390 598 385 q 577 381 542 359 q 508 336 508 326 q 508 319 550 261 q 591 204 626 162 q 649 134 662 123 q 675 111 698 99 q 733 80 733 55 q 733 29 711 15 q 689 0 650 0 l 492 0 q 462 0 446 22 l 365 126 q 333 167 325 175 q 318 183 313 183 q 308 183 306 174 q 304 165 304 141 q 304 119 309 109 q 313 99 331 84 q 344 74 344 54 q 344 20 308 5 q 271 -10 188 -10 q 91 -10 62 -2 q 45 3 33 18 q 21 33 21 49 q 21 68 42 82 q 60 93 64 99 q 69 104 72 117 q 83 186 83 328 l 83 435 q 83 490 77 505 q 72 520 50 523 q 10 528 10 556 q 10 575 27 590 q 45 604 85 619 q 213 667 274 667 q 302 667 301 643 z"},"u":{"x_min":0,"x_max":678,"ha":678,"o":"m 286 458 l 286 194 q 286 109 342 109 q 356 109 370 117 q 384 125 389 137 q 400 160 400 241 q 400 321 395 351 q 393 363 388 368 q 383 374 369 381 q 341 396 341 418 q 341 449 389 460 q 480 483 568 483 q 618 483 618 431 q 618 425 617 409 q 616 385 616 352 l 616 136 q 616 120 644 106 q 668 94 668 72 q 668 28 564 4 q 503 -10 446 -10 q 422 -10 414 -5 q 405 0 404 16 q 401 46 385 46 q 379 46 375 44 q 370 41 345 24 q 295 -10 239 -10 q 145 -10 106 44 q 74 90 74 197 q 74 237 74 266 q 74 282 74 288 q 74 330 67 350 q 59 370 39 381 q 20 391 15 396 q 10 402 10 413 q 10 450 66 462 q 162 483 257 483 q 286 483 286 458 z"},"]":{"x_min":0,"x_max":499,"ha":499,"o":"m 193 -26 l 193 522 q 193 568 183 580 q 172 592 131 592 q 120 592 95 589 q 82 588 72 588 q 51 588 39 597 q 26 606 26 622 q 26 635 35 647 q 43 659 56 664 q 89 677 208 677 q 319 677 341 663 q 376 641 376 522 l 376 -32 q 376 -151 344 -174 q 322 -190 214 -190 q 128 -190 85 -184 q 28 -175 28 -137 q 28 -102 80 -102 q 87 -102 111 -104 q 128 -105 142 -105 q 177 -105 185 -93 q 193 -80 193 -26 z"},"U":{"x_min":0,"x_max":820,"ha":820,"o":"m 735 422 l 735 303 q 735 195 719 150 q 685 56 567 13 q 496 -13 406 -13 q 249 -13 155 62 q 109 98 91 146 q 74 195 74 286 q 74 322 76 403 q 78 461 78 479 q 78 520 72 536 q 65 551 45 565 q 13 586 13 612 q 13 631 29 646 q 45 660 72 666 q 126 676 199 676 q 280 676 333 664 q 385 652 385 611 q 385 590 370 578 q 367 575 341 563 q 325 556 320 538 q 314 520 314 479 q 314 436 310 295 q 308 211 355 167 q 395 131 456 131 q 495 131 527 145 q 559 160 575 185 q 588 204 593 227 q 598 250 598 291 l 598 398 q 596 522 591 543 q 586 564 560 577 q 534 588 525 597 q 516 606 516 620 q 516 649 551 663 q 585 676 663 676 q 738 676 772 663 q 806 650 806 621 q 806 607 800 600 q 794 593 770 579 q 744 564 740 548 q 736 531 735 422 z"},"o":{"x_min":0,"x_max":602,"ha":602,"o":"m 321 487 q 410 487 478 440 q 526 407 555 354 q 585 298 585 238 q 585 132 488 58 q 396 -13 276 -13 q 159 -13 87 53 q 17 118 17 221 q 17 336 103 410 q 192 487 321 487 z m 282 374 q 260 374 247 358 q 234 342 234 316 q 234 287 245 236 q 256 186 271 146 q 287 106 321 106 q 364 106 364 162 q 364 203 353 255 q 342 307 327 340 q 311 373 282 374 z"},"N":{"x_min":0,"x_max":830,"ha":830,"o":"m 288 643 l 531 430 q 565 400 581 400 q 606 400 606 455 q 606 516 599 539 q 591 561 568 572 q 549 582 541 592 q 533 603 533 619 q 533 660 589 672 q 612 677 669 677 q 743 677 771 668 q 816 654 816 616 q 816 584 780 568 q 765 562 760 557 q 754 552 750 542 q 737 510 737 420 l 737 261 q 737 225 737 161 q 738 75 727 37 q 714 -10 679 -10 q 664 -10 653 -4 q 642 2 617 25 l 327 285 q 297 312 277 312 q 247 312 247 229 q 247 162 255 137 q 262 112 286 100 q 318 84 318 58 q 318 -10 172 -10 q 106 -10 70 8 q 34 25 34 57 q 34 73 41 82 q 47 90 71 104 q 94 118 99 152 q 107 215 107 333 q 107 459 93 517 q 87 538 79 548 q 71 559 52 568 q 30 579 21 589 q 13 599 13 614 q 13 661 93 673 q 121 677 189 677 q 228 677 246 671 q 264 665 288 643 z"},"+":{"x_min":0,"x_max":600,"ha":600,"o":"m 214 229 l 190 229 q 132 229 93 226 q 87 226 83 226 q 73 226 67 231 q 60 237 60 245 q 60 253 71 283 q 81 313 88 326 q 101 349 121 349 q 126 349 135 348 q 187 343 202 343 l 214 343 l 215 343 q 242 343 241 370 l 241 401 q 241 432 235 469 q 234 474 234 479 q 234 497 265 510 q 283 518 308 525 q 332 532 342 532 q 362 532 362 513 q 362 511 361 501 q 360 494 360 455 l 360 370 q 360 344 387 343 l 462 343 q 501 343 508 344 q 519 346 521 346 q 540 346 540 326 q 540 315 532 288 q 523 261 515 245 q 503 222 487 222 l 409 229 l 387 229 q 358 231 360 202 l 360 194 q 360 162 365 114 q 366 105 366 100 q 366 78 336 64 q 320 57 292 48 q 265 39 258 39 q 249 39 243 46 q 238 52 238 62 q 238 66 238 72 q 241 111 241 169 l 241 202 q 243 230 214 229 z"},"G":{"x_min":0,"x_max":794,"ha":794,"o":"m 395 680 q 459 680 516 662 q 541 654 550 654 q 560 654 591 665 q 602 668 612 668 q 640 668 665 636 q 705 584 705 523 q 705 481 683 455 q 662 429 627 429 q 599 429 572 450 q 563 456 531 496 q 478 562 408 562 q 344 562 307 515 q 270 469 270 390 q 270 273 329 191 q 352 162 383 144 q 414 126 445 126 q 470 126 487 143 q 503 160 503 186 q 503 209 489 219 q 484 223 479 224 q 475 225 451 225 q 430 225 416 238 q 402 251 402 272 q 402 312 456 330 q 515 348 592 348 q 675 348 731 331 q 784 314 784 271 q 784 253 772 240 q 760 228 740 225 q 723 223 718 218 q 713 212 708 192 q 687 115 625 62 q 583 27 524 7 q 465 -13 399 -13 q 292 -13 203 36 q 111 86 63 177 q 23 252 23 339 q 23 428 71 507 q 122 593 213 639 q 293 680 395 680 z"},"q":{"x_min":0,"x_max":648,"ha":648,"o":"m 302 486 q 334 486 354 483 q 374 480 432 467 q 447 463 462 463 q 479 463 514 476 q 543 486 562 486 q 605 486 605 452 q 605 434 602 408 q 596 363 591 268 q 586 172 586 94 q 586 -2 591 -42 q 594 -61 598 -68 q 603 -75 618 -86 q 638 -102 638 -125 q 638 -188 509 -188 q 412 -188 347 -160 q 324 -151 310 -135 q 296 -120 296 -104 q 296 -89 303 -83 q 310 -76 335 -63 q 364 -49 364 -6 q 364 19 351 19 q 344 19 311 2 q 279 -13 231 -13 q 136 -13 78 56 q 17 130 17 240 q 17 352 96 419 q 174 486 302 486 z m 317 379 q 296 379 278 356 q 254 326 254 264 q 254 189 280 146 q 301 110 330 110 q 354 110 363 134 q 372 158 372 230 q 372 297 367 325 q 362 354 349 366 q 335 379 317 379 z"},"d":{"x_min":0,"x_max":650,"ha":650,"o":"m 589 627 l 589 182 q 589 144 593 133 q 596 122 610 112 q 628 100 634 90 q 640 81 640 68 q 640 29 562 8 q 491 -10 420 -10 q 404 -10 400 -5 q 395 0 394 17 q 391 42 376 42 q 368 42 350 27 q 300 -13 239 -13 q 164 -13 103 43 q 67 77 45 121 q 16 178 16 236 q 16 305 54 369 q 89 428 150 460 q 201 486 250 486 q 307 486 352 461 q 359 457 363 457 q 379 457 379 499 q 379 517 370 527 q 362 536 340 543 q 309 553 309 577 q 309 613 380 633 q 505 667 547 667 q 589 667 589 627 z m 324 382 q 292 382 274 348 q 249 303 249 230 q 249 164 273 130 q 290 105 319 105 q 351 105 365 142 q 380 179 380 261 q 380 336 363 361 q 350 381 324 382 z"},"1":{"x_min":0,"x_max":600,"ha":600,"o":"m 82 95 q 88 95 114 92 q 125 90 132 90 q 174 90 180 155 q 184 192 184 366 q 184 393 173 403 q 162 413 134 413 q 127 413 114 412 q 104 411 97 411 q 81 411 70 420 q 60 429 60 443 q 60 459 76 474 q 91 490 119 501 q 257 560 413 560 q 456 560 475 550 q 494 540 494 518 q 494 505 488 498 q 481 491 462 483 q 432 470 428 451 q 423 432 421 302 q 425 171 425 162 q 426 153 429 136 q 435 110 451 101 q 467 91 508 89 q 554 87 554 51 q 554 14 489 2 q 398 -14 303 -14 q 241 -14 185 -6 q 115 3 77 18 q 39 31 39 59 q 39 73 51 84 q 63 95 82 95 z"},"5":{"x_min":0,"x_max":600,"ha":600,"o":"m 183 553 l 530 553 q 549 553 556 545 q 563 537 563 513 q 563 479 551 448 q 540 416 521 397 q 505 382 481 382 l 261 382 q 224 382 224 353 q 224 341 232 336 q 241 331 270 329 q 376 318 455 281 q 511 255 544 205 q 569 169 569 127 q 569 59 510 -2 q 464 -51 389 -77 q 314 -104 224 -104 q 152 -104 93 -85 q 39 -68 39 -29 q 39 -6 47 11 q 55 27 65 27 q 71 27 80 24 q 100 19 128 14 q 157 9 174 9 q 215 9 241 27 q 266 44 266 74 q 266 110 226 134 q 188 158 128 167 q 78 176 68 178 q 58 180 49 186 q 32 197 32 216 q 32 243 54 320 q 77 397 105 468 q 128 526 141 540 q 153 553 183 553 z"}}}
